<svg width="21" height="21" viewBox="0 0 21 21" fill="none" xmlns="http://www.w3.org/2000/svg">
<path d="M9.86766 2.77908C9.67235 2.88065 9.52782 3.04471 9.45751 3.24393C9.40673 3.39236 9.39891 3.93533 9.39891 7.63455V11.8572L8.41063 10.8728C7.77782 10.2439 7.37157 9.86893 7.27782 9.82986C7.05907 9.74002 6.71141 9.75174 6.50438 9.86111C6.24657 9.99783 6.10594 10.2244 6.08641 10.5291C6.05516 10.9861 6.00048 10.9119 7.91063 12.8299C8.87157 13.7986 9.73094 14.6306 9.8286 14.6853C10.0474 14.8181 10.4302 14.8299 10.6489 14.7166C10.8052 14.6346 14.1489 11.3181 14.313 11.0838C14.3989 10.9588 14.4184 10.8806 14.4302 10.6541C14.4419 10.4197 14.4302 10.3494 14.3481 10.201C14.2114 9.93924 13.9849 9.79861 13.6802 9.77908C13.2427 9.75174 13.2309 9.75955 12.1255 10.8572L11.1177 11.8572V7.64627C11.1177 4.6033 11.1059 3.39236 11.0747 3.28299C11.0161 3.08768 10.8325 2.87283 10.645 2.77908C10.4458 2.67752 10.0591 2.67752 9.86766 2.77908Z" fill="black"/>
<path d="M3.19971 13.6189C3.07471 13.6814 2.95752 13.7791 2.89111 13.8806L2.77783 14.0408L2.76611 14.8103C2.75049 15.7048 2.78565 15.8923 3.04346 16.3923C3.35205 16.99 3.98877 17.49 4.63721 17.6423C5.01221 17.7283 15.5044 17.7283 15.8794 17.6423C16.5278 17.4861 17.1646 16.99 17.4771 16.3884C17.7231 15.908 17.7661 15.6736 17.7505 14.7908L17.7388 14.0408L17.6255 13.8806C17.3403 13.4666 16.7036 13.4041 16.3403 13.7478C16.1216 13.9548 16.1021 14.033 16.0786 14.7517C16.0591 15.3884 16.0552 15.4236 15.9497 15.5994C15.8794 15.7205 15.7778 15.822 15.6567 15.8923L15.4731 16.0017H10.2583H5.04346L4.85986 15.8923C4.73877 15.822 4.63721 15.7205 4.5669 15.5994C4.46143 15.4236 4.45752 15.3884 4.43799 14.7517C4.41455 14.033 4.39502 13.9548 4.17627 13.7478C3.92236 13.5017 3.53565 13.4548 3.19971 13.6189Z" fill="black"/>
</svg>
