<svg width="24" height="25" viewBox="0 0 24 25" fill="none" xmlns="http://www.w3.org/2000/svg">
<path d="M21.0216 4.51794C20.5003 3.99476 19.8814 3.57974 19.2002 3.29658C18.519 3.01342 17.7889 2.86768 17.0515 2.86768C16.3142 2.86768 15.584 3.01342 14.9028 3.29658C14.2216 3.57974 13.6027 3.99476 13.0815 4.51794L11.9996 5.60323L10.9178 4.51794C9.8649 3.46165 8.43683 2.86822 6.94777 2.86822C5.45871 2.86822 4.03063 3.46165 2.97771 4.51794C1.92478 5.57424 1.33325 7.00689 1.33325 8.50072C1.33325 9.99456 1.92478 11.4272 2.97771 12.4835L4.05952 13.5688L11.9996 21.5343L19.9398 13.5688L21.0216 12.4835C21.5431 11.9606 21.9568 11.3397 22.2391 10.6563C22.5213 9.97291 22.6666 9.24044 22.6666 8.50072C22.6666 7.761 22.5213 7.02853 22.2391 6.34515C21.9568 5.66178 21.5431 5.04088 21.0216 4.51794Z" stroke="black" stroke-width="2" stroke-linecap="square"/>
</svg>
