<svg width="24" height="24" viewBox="0 0 24 24" fill="none" xmlns="http://www.w3.org/2000/svg">
<path d="M13.6406 2.4375C11.6906 2.67188 10.3266 3.83437 9.86249 5.65781C9.7078 6.26719 9.65624 6.91406 9.65624 8.2125V9.32812H8.34374H7.02655L6.90936 9.44531L6.79218 9.5625L6.80624 11.3203C6.8203 12.9328 6.82499 13.0828 6.90468 13.1578C6.97968 13.2328 7.11561 13.2422 8.3203 13.2562L9.65624 13.2703L9.66561 17.325L9.67968 21.3844L9.81093 21.4969L9.94218 21.6094H11.6953C12.9047 21.6094 13.4859 21.5906 13.5656 21.5578C13.6312 21.525 13.7062 21.4406 13.7344 21.3609C13.7672 21.2672 13.7812 19.8984 13.7812 17.2453V13.2703L15.2953 13.2562C16.125 13.2469 16.8422 13.2234 16.8891 13.2C17.0719 13.1109 17.0859 13.0031 17.1 11.5312C17.1187 9.83906 17.1 9.54844 16.9453 9.39375L16.8328 9.28125H15.3047H13.7766L13.7906 8.00156C13.8047 6.75 13.8047 6.72187 13.9172 6.54375C13.9922 6.42656 14.1047 6.32812 14.2453 6.26719C14.4422 6.17812 14.5734 6.16875 15.6797 6.15C17.0391 6.13125 17.0719 6.12187 17.1516 5.82656C17.2172 5.5875 17.2172 2.93906 17.1516 2.70469C17.0672 2.4 16.9969 2.39062 15.3656 2.39531C14.5828 2.4 13.8094 2.41875 13.6406 2.4375Z" fill="black"/>
</svg>
