<svg width="24" height="24" viewBox="0 0 24 24" fill="none" xmlns="http://www.w3.org/2000/svg">
<g clip-path="url(#clip0_379_936)">
<path d="M7.54688 0.0328732C5.05313 0.0984974 3.42656 0.656311 2.12813 1.88444C1.15313 2.81256 0.553125 3.93756 0.257813 5.40944C0.028125 6.56256 0.0234375 6.67975 0.0234375 12.0235C0.0234375 17.3719 0.028125 17.4329 0.2625 18.6094C0.590625 20.2501 1.36406 21.5485 2.55469 22.4766C3.58125 23.2688 4.575 23.6485 6.27188 23.8876C6.74063 23.9579 7.43906 23.9719 11.1797 23.986C16.6688 24.0141 17.7375 23.9672 19.0219 23.6438C20.2641 23.3344 21.2391 22.7813 22.0781 21.9047C23.1328 20.8126 23.6953 19.4485 23.9156 17.461C24.0047 16.6641 24.0047 7.30318 23.9156 6.51569C23.5734 3.45006 22.2844 1.56569 19.875 0.618811C19.0266 0.285997 18.0469 0.11256 16.6734 0.046936C15.8531 0.00943565 8.8125 -0.00462723 7.54688 0.0328732ZM16.0547 2.20319C17.0438 2.25475 17.8125 2.3485 18.3609 2.48912C19.4438 2.761 20.25 3.2485 20.7609 3.9235C21.2812 4.61725 21.5578 5.40475 21.7078 6.63287C21.7828 7.25631 21.8203 15.4876 21.75 16.5422C21.6234 18.5204 21.2719 19.5422 20.4375 20.3907C19.5656 21.2766 18.6188 21.6094 16.6172 21.7454C15.7172 21.811 8.61094 21.811 7.59375 21.7501C5.65781 21.6329 4.67344 21.3563 3.83906 20.6813C2.87344 19.9032 2.38594 18.811 2.19844 17.0157C2.12813 16.3407 2.1375 7.936 2.20781 7.12506C2.41406 4.75787 3.09375 3.49693 4.5375 2.78912C5.25469 2.44225 6.15938 2.25944 7.42969 2.20787C8.68125 2.15631 15.0281 2.15631 16.0547 2.20319Z" fill="black"/>
<path d="M18.0707 4.16702C17.6301 4.27952 17.302 4.54671 17.1051 4.94515C16.8285 5.51234 16.9363 6.18734 17.3723 6.62796C17.8129 7.0639 18.4879 7.17171 19.0551 6.89515C19.3785 6.73577 19.5801 6.52952 19.7488 6.18734C19.8895 5.89671 19.8895 5.32015 19.7488 5.01077C19.5238 4.50921 19.0598 4.18577 18.516 4.14827C18.3473 4.1389 18.1504 4.14359 18.0707 4.16702Z" fill="black"/>
<path d="M11.1797 5.86407C8.86406 6.18282 6.88593 7.80939 6.15 10.0125C5.5875 11.6906 5.77031 13.5656 6.6375 15.0703C8.71406 18.6563 13.6453 19.2469 16.4906 16.2469C17.2969 15.3938 17.8266 14.3672 18.0797 13.1719C18.1969 12.6188 18.1969 11.3813 18.0797 10.8281C17.8078 9.54376 17.2687 8.54064 16.3641 7.63595C15.4641 6.73595 14.4469 6.18751 13.1953 5.9297C12.75 5.83595 11.6391 5.79845 11.1797 5.86407ZM12.9844 8.15157C14.4094 8.53126 15.4875 9.62814 15.8719 11.0953C15.9328 11.325 15.9562 11.5781 15.9516 12.0234C15.9516 12.5438 15.9328 12.6938 15.825 13.0453C15.3984 14.4703 14.3719 15.4734 12.9609 15.8484C12.4359 15.9891 11.5641 15.9891 11.0437 15.8484C9.60937 15.4688 8.53125 14.3859 8.14687 12.9422C8.01093 12.4359 8.01562 11.5547 8.15156 11.0391C8.55937 9.50626 9.75 8.39532 11.3203 8.08126C11.7516 7.99689 12.525 8.0297 12.9844 8.15157Z" fill="black"/>
</g>
<defs>
<clipPath id="clip0_379_936">
<rect width="24" height="24" fill="white"/>
</clipPath>
</defs>
</svg>
