<svg width="24" height="24" viewBox="0 0 24 24" fill="none" xmlns="http://www.w3.org/2000/svg">
<path d="M4.03125 2.47975C3.61406 2.61569 3.37031 2.761 3.06563 3.06569C2.61094 3.52038 2.39062 4.05006 2.39062 4.68756C2.39062 5.62975 2.89219 6.43131 3.73594 6.82975C4.06875 6.98913 4.14375 7.00788 4.57969 7.02194C5.16563 7.04538 5.55938 6.94225 5.99531 6.65163C6.36094 6.40788 6.58125 6.15006 6.77813 5.74225C7.12031 5.03444 7.11094 4.32194 6.75938 3.60944C6.60469 3.29538 6.15469 2.836 5.83125 2.66256C5.325 2.39069 4.55156 2.311 4.03125 2.47975Z" fill="black"/>
<path d="M16.3359 8.46562C14.8594 8.67656 13.8187 9.27656 13.1766 10.2937L13.0312 10.5187V9.64219V8.76562H11.1094H9.1875V15.1875V21.6094H11.2031H13.2141L13.2281 17.8219C13.2469 14.1141 13.2469 14.0297 13.3453 13.6781C13.6406 12.6375 14.2125 12.1125 15.1781 12.0094C16.4297 11.8687 17.1797 12.3844 17.4703 13.5797C17.5406 13.8609 17.55 14.3531 17.5641 17.7516L17.5828 21.6094H19.5984H21.6141L21.5953 17.2359C21.5766 13.4484 21.5672 12.8062 21.4969 12.4266C21.2437 10.9688 20.7609 9.98438 19.9969 9.36562C19.4953 8.9625 18.8859 8.7 18.1078 8.55937C17.7187 8.48437 16.5984 8.42812 16.3359 8.46562Z" fill="black"/>
<path d="M2.67188 15.1875V21.6094H4.6875H6.70312V15.1875V8.76562H4.6875H2.67188V15.1875Z" fill="black"/>
</svg>
