<svg width="24" height="24" viewBox="0 0 24 24" fill="none" xmlns="http://www.w3.org/2000/svg">
<path d="M0 1.15781C0 1.18125 1.84688 3.60938 4.10625 6.5625C6.36563 9.51562 8.4 12.1734 8.625 12.4734L9.04219 13.0172L4.75781 17.9109C2.4 20.6016 0.473438 22.8187 0.46875 22.8375C0.46875 22.8609 1.29844 22.875 2.31563 22.875H4.16719L7.45781 19.1156C9.26719 17.0437 10.7625 15.3469 10.7812 15.3375C10.7953 15.3328 12.1078 17.025 13.6922 19.0969L16.5703 22.8703H20.2875C22.3266 22.875 24 22.8609 24 22.8375C24 22.8187 21.8766 20.0016 19.2891 16.575C14.5922 10.3687 14.5734 10.3453 14.6625 10.2469C15.2438 9.6 22.5938 1.17188 22.5938 1.15312C22.5938 1.13906 21.7594 1.125 20.7422 1.125H18.8906L15.8906 4.55625C14.2406 6.44531 12.8719 7.99687 12.8531 8.00625C12.8297 8.01094 11.6438 6.46875 10.2141 4.575L7.61719 1.12969H3.81094C1.71563 1.125 0 1.13906 0 1.15781ZM13.0453 11.9531L19.5844 20.6016L18.6188 20.6156C17.7469 20.625 17.6438 20.6203 17.5734 20.5453C17.5312 20.4984 14.6719 16.7672 11.2266 12.2578C7.77656 7.74375 4.81875 3.88125 4.65469 3.66562L4.35469 3.28125L5.42813 3.29062L6.50625 3.30469L13.0453 11.9531Z" fill="black"/>
</svg>
